<mxfile type="github" version="12.1.8" host="www.draw.io" modified="2019-10-30T15:41:40.761Z" agent="Mozilla/5.0 (Windows NT 10.0; Win64; x64) AppleWebKit/537.36 (KHTML, like Gecko) Chrome/64.0.3282.140 Safari/537.36 Edge/17.17134" etag="9iRGAXP_7p9gweeHmDgc" pages="2">
  <diagram id="Page-1" name="Class Diagram">
    <mxGraphModel grid="1" dx="1408" dy="757" gridSize="10" guides="1" tooltips="1" connect="1" arrows="1" fold="1" page="1" pageScale="1" pageWidth="850" pageHeight="1100" math="0" shadow="0">
      <root>
        <mxCell id="0"/>
        <mxCell id="1" parent="0"/>
        <mxCell id="3" parent="1" vertex="1" style="vsdxID=1;fillColor=none;gradientColor=none;strokeColor=none;spacingTop=3;spacingBottom=3;labelBackgroundColor=none;rounded=0;html=1;whiteSpace=wrap;">
          <mxGeometry as="geometry" height="361" width="260" y="48" x="346"/>
        </mxCell>
        <mxCell id="4" parent="3" vertex="1" style="vsdxID=2;fillColor=#f2f2f2;gradientColor=none;shape=stencil(1ZJBDsIgEEVPwxJDYeEBal16h4mlLRGhGdC2txcyGtsm2sSduz/z3wwEPlNl6KDXTIoQ0V/0YOrYMXVgUhrXaTQxKaYqpsrGo27R31xNdQ+ZzOrq73nDSHMiT0gxUVUIqo+EWuNm6Mv8DZY7uf+Mb8CA5+TiEz7BiXCcVo2NbWLkMJrA0UeIxrsFbQFbzdNJvLHQLqwwaN3P2sW/3O3rIy+/L4l3RhpjLUVs7q8zlVqUR1U9AA==);strokeColor=#a5a5a5;labelBackgroundColor=none;rounded=0;html=1;whiteSpace=wrap;">
          <mxGeometry as="geometry" height="361" width="260"/>
        </mxCell>
        <mxCell id="5" parent="3" vertex="1" style="vsdxID=3;fillColor=#ffffff;gradientColor=none;shape=stencil(1ZJNDoMgEIVPw5IE4QjWLr3DpIKSUjADrXr7QqZp1TQuuutufr6ZN5k8puo4wKiZFDFhuOrJdmlg6sSktH7QaFOOmGqYqk1A3WO4+47yEQpZolt4lA0zzYkyIcVCWSUoPxMKeMk9fKEttATjsisc7hIzh9lGjiFBssFvWAfYa551uHHQb1px0npclav/uMxZv3rvW+r7g4/hA/RHcCefg48vjHWObLXu732US+RB1TwB);strokeColor=#a5a5a5;labelBackgroundColor=none;rounded=0;html=1;whiteSpace=wrap;">
          <mxGeometry as="geometry" height="44" width="260"/>
        </mxCell>
        <mxCell id="6" value="&lt;p style=&quot;align:center;margin-left:0;margin-right:0;margin-top:0px;margin-bottom:0px;text-indent:0;valign:middle;direction:ltr;&quot;&gt;&lt;font style=&quot;font-size:16px;font-family:Calibri;color:#000000;direction:ltr;letter-spacing:0px;line-height:120%;opacity:1&quot;&gt;&lt;b&gt;Customer&lt;br/&gt;&lt;/b&gt;&lt;/font&gt;&lt;/p&gt;" parent="3" vertex="1" style="text;vsdxID=1;fillColor=none;gradientColor=none;strokeColor=none;spacingTop=3;spacingBottom=3;labelBackgroundColor=none;rounded=0;html=1;whiteSpace=wrap;verticalAlign=middle;align=center;;html=1;">
          <mxGeometry as="geometry" height="44.31" width="260" y="-0.13"/>
        </mxCell>
        <mxCell id="7" value="&lt;font style=&quot;font-size: 14px ; font-family: &amp;#34;calibri&amp;#34; ; color: #000000 ; direction: ltr ; letter-spacing: 0px ; line-height: 120% ; opacity: 1&quot;&gt;name:String&lt;br&gt;wallet:Integer&lt;br&gt;tolerance:Double&lt;br&gt;ad_space:Set&lt;br&gt;owned_products:Set&lt;br&gt;STOP:Boolean&lt;br&gt;lock:Lock()&lt;br&gt;thread: Thread()&lt;br&gt;&lt;/font&gt;" parent="1" vertex="1" style="verticalAlign=middle;align=left;vsdxID=6;fillColor=#5b9bd5;gradientColor=none;fillOpacity=0;shape=stencil(nZBLDoAgDERP0z3SIyjew0SURgSD+Lu9kMZoXLhwN9N5bdMClrNpJg1SzDH4QW/URgNYgZTkjA4UkwJUgGXng+6DX1zLfmoymdXo1zxh5z6RO6Q42BWCfc2oJfdAr/AX/IH+BF/rk7hv7MjaZ/L+RirxJ1Gd);strokeColor=#5b9bd5;spacingTop=-3;spacingBottom=-3;spacingLeft=3;spacingRight=-3;labelBackgroundColor=none;rounded=0;html=1;whiteSpace=wrap;">
          <mxGeometry as="geometry" height="135" width="252" y="96" x="350"/>
        </mxCell>
        <mxCell id="8" parent="1" vertex="1" style="vsdxID=7;fillColor=#ffffff;gradientColor=none;shape=stencil(fY9LDoAgDERP0z3SeALUe5gI0ohgEH+3F9KFxoW7mfa1nQKq1faLBinWFMOkDxqSBWxASvJWR0pZAbaAyoSoxxg2P7Bf+kIWNYe9bDh5TpQJKS52NduOSUf+RVbij83iOWHIOU747n8j5RK/g+0N);dashed=1;dashPattern=2.00 2.00;strokeColor=#5b9bd5;labelBackgroundColor=none;rounded=0;html=1;whiteSpace=wrap;">
          <mxGeometry as="geometry" height="4" width="252" y="231" x="350"/>
        </mxCell>
        <mxCell id="9" value="&lt;font style=&quot;font-size: 14px ; font-family: &amp;#34;calibri&amp;#34; ; color: #000000 ; direction: ltr ; letter-spacing: 0px ; line-height: 120% ; opacity: 1&quot;&gt;__init__(self, name, wallet, tolerance)&lt;br&gt;view_advert(self, product)&lt;br&gt;buy(self, product)&lt;br&gt;deduct(self, money)&lt;br&gt;tweet(self, product, sentiment)&lt;br&gt;loop(self)&lt;br&gt;tick(self)&lt;br&gt;kill(self)&lt;br&gt;__str__(self)&lt;br&gt;&lt;br&gt;&lt;/font&gt;" parent="1" vertex="1" style="verticalAlign=middle;align=left;vsdxID=8;fillColor=#5b9bd5;gradientColor=none;fillOpacity=0;shape=stencil(nZBLDoAgDERP0z3SIyjew0SURgSD+Lu9kMZoXLhwN9N5bdMClrNpJg1SzDH4QW/URgNYgZTkjA4UkwJUgGXng+6DX1zLfmoymdXo1zxh5z6RO6Q42BWCfc2oJfdAr/AX/IH+BF/rk7hv7MjaZ/L+RirxJ1Gd);strokeColor=#5b9bd5;spacingTop=-3;spacingBottom=-3;spacingLeft=3;spacingRight=-3;labelBackgroundColor=none;rounded=0;html=1;whiteSpace=wrap;">
          <mxGeometry as="geometry" height="169" width="252" y="235" x="350"/>
        </mxCell>
        <mxCell id="10" parent="1" vertex="1" style="vsdxID=31;fillColor=none;gradientColor=none;strokeColor=none;spacingTop=3;spacingBottom=3;labelBackgroundColor=none;rounded=0;html=1;whiteSpace=wrap;">
          <mxGeometry as="geometry" height="462" width="260" y="25" x="60"/>
        </mxCell>
        <mxCell id="11" parent="10" vertex="1" style="vsdxID=32;fillColor=#f2f2f2;gradientColor=none;shape=stencil(1ZJBDsIgEEVPwxJDISa6rnXZO0wsbYkIzRRte3sho7FtYhfu3P2Z/2Yg8JnK+xY6zaToA/qrHkwVWqZOTErjWo0mRMVUwVRee9QN+rurqO4gkUnd/CNtGGlOpAkpJqoyQfWZUGvcDH2bP8HH3f7wnd5mAS/RxBdbQkk0TqvG9jIxchhNz9EHCMa7BWwBG83jQby20CysftC6m7WzP7na1guvvi6KTz5qYy3Fa+6v8xRblEVVPAE=);strokeColor=#a5a5a5;labelBackgroundColor=none;rounded=0;html=1;whiteSpace=wrap;">
          <mxGeometry as="geometry" height="462" width="260"/>
        </mxCell>
        <mxCell id="12" parent="10" vertex="1" style="vsdxID=33;fillColor=#ffffff;gradientColor=none;shape=stencil(1ZJNDoMgEIVPw5IE4QjWLr3DpIKSUjADrXr7QqZp1TQuuutufr6ZN5k8puo4wKiZFDFhuOrJdmlg6sSktH7QaFOOmGqYqk1A3WO4+47yEQpZolt4lA0zzYkyIcVCWSUoPxMKeMk9fKEttATjsisc7hIzh9lGjiFBssFvWAfYa551uHHQb1px0npclav/uMxZv3rvW+r7g4/hA/RHcCefg48vjHWObLXu732US+RB1TwB);strokeColor=#a5a5a5;labelBackgroundColor=none;rounded=0;html=1;whiteSpace=wrap;">
          <mxGeometry as="geometry" height="44" width="260"/>
        </mxCell>
        <mxCell id="13" value="&lt;p style=&quot;align:center;margin-left:0;margin-right:0;margin-top:0px;margin-bottom:0px;text-indent:0;valign:middle;direction:ltr;&quot;&gt;&lt;font style=&quot;font-size:16px;font-family:Calibri;color:#000000;direction:ltr;letter-spacing:0px;line-height:120%;opacity:1&quot;&gt;&lt;b&gt;Seller&lt;br/&gt;&lt;/b&gt;&lt;/font&gt;&lt;/p&gt;" parent="10" vertex="1" style="text;vsdxID=31;fillColor=none;gradientColor=none;strokeColor=none;spacingTop=3;spacingBottom=3;labelBackgroundColor=none;rounded=0;html=1;whiteSpace=wrap;verticalAlign=middle;align=center;;html=1;">
          <mxGeometry as="geometry" height="44.31" width="260" y="-0.73"/>
        </mxCell>
        <mxCell id="16" value="&lt;font style=&quot;font-size: 14px ; font-family: &amp;#34;calibri&amp;#34; ; color: #000000 ; direction: ltr ; letter-spacing: 0px ; line-height: 120% ; opacity: 1&quot;&gt;__init__(name, product, wallet)&lt;br&gt;loop(self)&lt;br&gt;sold(self)&lt;br&gt;tick(self)&lt;br&gt;my_revenue(self,latest_only=False)&lt;br&gt;my_expenses(self,latest_only=False)&lt;br&gt;my_profit(self,latest_only=False)&lt;br&gt;user_sentiment(self)&lt;br&gt;kill(self)&lt;br&gt;__str__(self)&lt;br&gt;CEO(self)&lt;br&gt;&lt;br&gt;&lt;/font&gt;" parent="10" vertex="1" style="verticalAlign=middle;align=left;vsdxID=38;fillColor=#5b9bd5;gradientColor=none;fillOpacity=0;shape=stencil(nZBLDoAgDERP0z3SIyjew0SURgSD+Lu9kMZoXLhwN9N5bdMClrNpJg1SzDH4QW/URgNYgZTkjA4UkwJUgGXng+6DX1zLfmoymdXo1zxh5z6RO6Q42BWCfc2oJfdAr/AX/IH+BF/rk7hv7MjaZ/L+RirxJ1Gd);strokeColor=#5b9bd5;spacingTop=-3;spacingBottom=-3;spacingLeft=3;spacingRight=-3;labelBackgroundColor=none;rounded=0;html=1;whiteSpace=wrap;">
          <mxGeometry as="geometry" height="203" width="252" y="260" x="4"/>
        </mxCell>
        <mxCell id="14" value="&lt;font style=&quot;font-size: 14px ; font-family: &amp;#34;calibri&amp;#34; ; color: #000000 ; direction: ltr ; letter-spacing: 0px ; line-height: 120% ; opacity: 1&quot;&gt;name:String&lt;br&gt;product:String&lt;br&gt;wallet:Integer&lt;br&gt;sales_history[]:Integer&lt;br&gt;revenue_history[]:Integer&lt;br&gt;profit_history[]:Integer&lt;br&gt;expense_history[]:Integer&lt;br&gt;sentiment_history[]:Double&lt;br&gt;item_sold[]:Integer&lt;br&gt;STOP:Boolean&lt;br&gt;lock:Lock()&lt;br&gt;thread: Thread()&lt;br&gt;&lt;/font&gt;" parent="10" vertex="1" style="verticalAlign=middle;align=left;vsdxID=36;fillColor=#5b9bd5;gradientColor=none;fillOpacity=0;shape=stencil(nZBLDoAgDERP0z3SIyjew0SURgSD+Lu9kMZoXLhwN9N5bdMClrNpJg1SzDH4QW/URgNYgZTkjA4UkwJUgGXng+6DX1zLfmoymdXo1zxh5z6RO6Q42BWCfc2oJfdAr/AX/IH+BF/rk7hv7MjaZ/L+RirxJ1Gd);strokeColor=#5b9bd5;spacingTop=-3;spacingBottom=-3;spacingLeft=3;spacingRight=-3;labelBackgroundColor=none;rounded=0;html=1;whiteSpace=wrap;">
          <mxGeometry as="geometry" height="203" width="252" y="43.5" x="4"/>
        </mxCell>
        <mxCell id="15" parent="10" vertex="1" style="vsdxID=37;fillColor=#ffffff;gradientColor=none;shape=stencil(fY9LDoAgDERP0z3SeALUe5gI0ohgEH+3F9KFxoW7mfa1nQKq1faLBinWFMOkDxqSBWxASvJWR0pZAbaAyoSoxxg2P7Bf+kIWNYe9bDh5TpQJKS52NduOSUf+RVbij83iOWHIOU747n8j5RK/g+0N);dashed=1;dashPattern=2.00 2.00;strokeColor=#5b9bd5;labelBackgroundColor=none;rounded=0;html=1;whiteSpace=wrap;">
          <mxGeometry as="geometry" height="4" width="252" y="255"/>
        </mxCell>
        <mxCell id="17" parent="1" vertex="1" style="vsdxID=42;fillColor=none;gradientColor=none;strokeColor=none;spacingTop=3;spacingBottom=3;labelBackgroundColor=none;rounded=0;html=1;whiteSpace=wrap;">
          <mxGeometry as="geometry" height="103" width="200" y="48" x="640"/>
        </mxCell>
        <mxCell id="18" parent="17" vertex="1" style="vsdxID=43;fillColor=#f2f2f2;gradientColor=none;shape=stencil(1ZJBDsIgEEVPwxJDwcS4rnXpHSaWtkSEZoq2vb2Q0dg20Sbu3P2Z/2Yg8JnKuwZazaToAvqL7k0ZGqYOTErjGo0mRMVUwVReedQ1+psrqW4hkUld/T1tGGhOpAkpRqoyQfWRUGvcBH2ZP8FbudnvPuMrMOA5uviET3AiHMdFY2WbGDgMpuPoAwTj3Yy2gLXm8SReWahnVtdr3U7a2b/c7dsjL74vindGKmMtRWzqLzMVW5RHVTwA);strokeColor=#a5a5a5;labelBackgroundColor=none;rounded=0;html=1;whiteSpace=wrap;">
          <mxGeometry as="geometry" height="103" width="200"/>
        </mxCell>
        <mxCell id="19" parent="17" vertex="1" style="vsdxID=44;fillColor=#ffffff;gradientColor=none;shape=stencil(1ZJNDoMgEIVPw5IE4QjWLr3DpIKSUjADrXr7QqZp1TQuuutufr6ZN5k8puo4wKiZFDFhuOrJdmlg6sSktH7QaFOOmGqYqk1A3WO4+47yEQpZolt4lA0zzYkyIcVCWSUoPxMKeMk9fKEttATjsisc7hIzh9lGjiFBssFvWAfYa551uHHQb1px0npclav/uMxZv3rvW+r7g4/hA/RHcCefg48vjHWObLXu732US+RB1TwB);strokeColor=#a5a5a5;labelBackgroundColor=none;rounded=0;html=1;whiteSpace=wrap;">
          <mxGeometry as="geometry" height="44" width="200"/>
        </mxCell>
        <mxCell id="20" value="&lt;p style=&quot;align:center;margin-left:0;margin-right:0;margin-top:0px;margin-bottom:0px;text-indent:0;valign:middle;direction:ltr;&quot;&gt;&lt;font style=&quot;font-size:16px;font-family:Calibri;color:#000000;direction:ltr;letter-spacing:0px;line-height:120%;opacity:1&quot;&gt;&lt;b&gt;Constants&lt;br/&gt;&lt;/b&gt;&lt;/font&gt;&lt;/p&gt;" parent="17" vertex="1" style="text;vsdxID=42;fillColor=none;gradientColor=none;strokeColor=none;spacingTop=3;spacingBottom=3;labelBackgroundColor=none;rounded=0;html=1;whiteSpace=wrap;verticalAlign=middle;align=center;;html=1;">
          <mxGeometry as="geometry" height="44.31" width="200" y="-0.12"/>
        </mxCell>
        <mxCell id="21" value="&lt;font style=&quot;font-size:14px;font-family:Calibri;color:#000000;direction:ltr;letter-spacing:0px;line-height:120%;opacity:1&quot;&gt;tick_time:Integer&lt;br/&gt;seed:Integer&lt;br/&gt;&lt;/font&gt;" parent="1" vertex="1" style="verticalAlign=middle;align=left;vsdxID=47;fillColor=#5b9bd5;gradientColor=none;fillOpacity=0;shape=stencil(nZBLDoAgDERP0z3SIyjew0SURgSD+Lu9kMZoXLhwN9N5bdMClrNpJg1SzDH4QW/URgNYgZTkjA4UkwJUgGXng+6DX1zLfmoymdXo1zxh5z6RO6Q42BWCfc2oJfdAr/AX/IH+BF/rk7hv7MjaZ/L+RirxJ1Gd);strokeColor=#5b9bd5;spacingTop=-3;spacingBottom=-3;spacingLeft=3;spacingRight=-3;labelBackgroundColor=none;rounded=0;html=1;whiteSpace=wrap;">
          <mxGeometry as="geometry" height="33" width="252" y="96" x="644"/>
        </mxCell>
        <mxCell id="22" value="" parent="1" vertex="1" style="verticalAlign=middle;align=left;vsdxID=49;fillColor=#5b9bd5;gradientColor=none;fillOpacity=0;shape=stencil(nZBLDoAgDERP0z3SIyjew0SURgSD+Lu9kMZoXLhwN9N5bdMClrNpJg1SzDH4QW/URgNYgZTkjA4UkwJUgGXng+6DX1zLfmoymdXo1zxh5z6RO6Q42BWCfc2oJfdAr/AX/IH+BF/rk7hv7MjaZ/L+RirxJ1Gd);strokeColor=#5b9bd5;spacingTop=-3;spacingBottom=-3;spacingLeft=3;spacingRight=-3;labelBackgroundColor=none;rounded=0;html=1;whiteSpace=wrap;">
          <mxGeometry as="geometry" height="16" width="252" y="130" x="644"/>
        </mxCell>
        <mxCell id="23" parent="1" vertex="1" style="vsdxID=50;fillColor=none;gradientColor=none;strokeColor=none;spacingTop=3;spacingBottom=3;labelBackgroundColor=none;rounded=0;html=1;whiteSpace=wrap;">
          <mxGeometry as="geometry" height="69" width="180" y="171" x="640"/>
        </mxCell>
        <mxCell id="24" parent="23" vertex="1" style="vsdxID=51;fillColor=#f2f2f2;gradientColor=none;shape=stencil(3ZLdDoIwDIWfZpeQsiKDa3/eY9EBi5ORMhXf3pFqRBM18dK7tuc7W5Megcuh1b0REoZAfm/OdhdagSshpe1aQzbESuBa4LL2ZBryx27Hfa8ncqoO/jS9MLIPJoeEC3cZcL9h1Nluht7Fn+AC06p6j3+BNW2jSjdYQi5LAFyoCkqVSsVmurlVUVQ5ImCmZIZpmbP85ScYEz3aISEfdLC+e6KdpsYkcYukdrp5koazMf1snP3D3p+O83L2WDyyVVvnOJpz/TWLccQ5xvUV);strokeColor=#a5a5a5;labelBackgroundColor=none;rounded=0;html=1;whiteSpace=wrap;">
          <mxGeometry as="geometry" height="69" width="180"/>
        </mxCell>
        <mxCell id="25" parent="23" vertex="1" style="vsdxID=52;fillColor=#ffffff;gradientColor=none;shape=stencil(1ZJNDoMgEIVPw5IE4QjWLr3DpIKSUjADrXr7QqZp1TQuuutufr6ZN5k8puo4wKiZFDFhuOrJdmlg6sSktH7QaFOOmGqYqk1A3WO4+47yEQpZolt4lA0zzYkyIcVCWSUoPxMKeMk9fKEttATjsisc7hIzh9lGjiFBssFvWAfYa551uHHQb1px0npclav/uMxZv3rvW+r7g4/hA/RHcCefg48vjHWObLXu732US+RB1TwB);strokeColor=#a5a5a5;labelBackgroundColor=none;rounded=0;html=1;whiteSpace=wrap;">
          <mxGeometry as="geometry" height="44" width="180"/>
        </mxCell>
        <mxCell id="26" value="&lt;p style=&quot;align:center;margin-left:0;margin-right:0;margin-top:0px;margin-bottom:0px;text-indent:0;valign:middle;direction:ltr;&quot;&gt;&lt;font style=&quot;font-size:16px;font-family:Calibri;color:#000000;direction:ltr;letter-spacing:0px;line-height:120%;opacity:1&quot;&gt;&lt;b&gt;Utils&lt;br/&gt;&lt;/b&gt;&lt;/font&gt;&lt;/p&gt;" parent="23" vertex="1" style="text;vsdxID=50;fillColor=none;gradientColor=none;strokeColor=none;spacingTop=3;spacingBottom=3;labelBackgroundColor=none;rounded=0;html=1;whiteSpace=wrap;verticalAlign=middle;align=center;;html=1;">
          <mxGeometry as="geometry" height="44.31" width="180" y="-0.25"/>
        </mxCell>
        <mxCell id="27" value="&lt;font style=&quot;font-size:14px;font-family:Calibri;color:#000000;direction:ltr;letter-spacing:0px;line-height:120%;opacity:1&quot;&gt;plot(seller)&lt;br/&gt;&lt;/font&gt;" parent="1" vertex="1" style="verticalAlign=middle;align=left;vsdxID=55;fillColor=#5b9bd5;gradientColor=none;fillOpacity=0;shape=stencil(nZBLDoAgDERP0z3SIyjew0SURgSD+Lu9kMZoXLhwN9N5bdMClrNpJg1SzDH4QW/URgNYgZTkjA4UkwJUgGXng+6DX1zLfmoymdXo1zxh5z6RO6Q42BWCfc2oJfdAr/AX/IH+BF/rk7hv7MjaZ/L+RirxJ1Gd);strokeColor=#5b9bd5;spacingTop=-3;spacingBottom=-3;spacingLeft=3;spacingRight=-3;labelBackgroundColor=none;rounded=0;html=1;whiteSpace=wrap;">
          <mxGeometry as="geometry" height="16" width="252" y="219" x="644"/>
        </mxCell>
        <mxCell id="28" parent="1" vertex="1" style="vsdxID=58;fillColor=none;gradientColor=none;strokeColor=none;spacingTop=3;spacingBottom=3;labelBackgroundColor=none;rounded=0;html=1;whiteSpace=wrap;">
          <mxGeometry as="geometry" height="107" width="260" y="548" x="344"/>
        </mxCell>
        <mxCell id="29" parent="28" vertex="1" style="vsdxID=59;fillColor=#f2f2f2;gradientColor=none;shape=stencil(1ZJBDsIgEEVPwxJDwcQD1LrsHSaWtkSEZoq2vb2Q0dg20Sbu3P2Z/2Yg8JnK+xY6zaToA/qLHkwVWqaOTErjWo0mRMVUwVRee9QN+purqO4gkUld/T1tGGlOpAkpJqoyQfWJUGvcDH2ZP8H7bKcOn/ENGPAcXXzCJZSE47RqbGwTI4fR9Bx9gGC8W9AWsNE8nsRrC83C6getu1k7+5e7fXvk1fdF8c5IbayliM39daZii/Koigc=);strokeColor=#a5a5a5;labelBackgroundColor=none;rounded=0;html=1;whiteSpace=wrap;">
          <mxGeometry as="geometry" height="107" width="260"/>
        </mxCell>
        <mxCell id="30" parent="28" vertex="1" style="vsdxID=60;fillColor=#ffffff;gradientColor=none;shape=stencil(1ZJNDoMgEIVPw5IE4QjWLr3DpIKSUjADrXr7QqZp1TQuuutufr6ZN5k8puo4wKiZFDFhuOrJdmlg6sSktH7QaFOOmGqYqk1A3WO4+47yEQpZolt4lA0zzYkyIcVCWSUoPxMKeMk9fKEttATjsisc7hIzh9lGjiFBssFvWAfYa551uHHQb1px0npclav/uMxZv3rvW+r7g4/hA/RHcCefg48vjHWObLXu732US+RB1TwB);strokeColor=#a5a5a5;labelBackgroundColor=none;rounded=0;html=1;whiteSpace=wrap;">
          <mxGeometry as="geometry" height="44" width="260"/>
        </mxCell>
        <mxCell id="31" value="&lt;p style=&quot;align:center;margin-left:0;margin-right:0;margin-top:0px;margin-bottom:0px;text-indent:0;valign:middle;direction:ltr;&quot;&gt;&lt;font style=&quot;font-size:16px;font-family:Calibri;color:#000000;direction:ltr;letter-spacing:0px;line-height:120%;opacity:1&quot;&gt;&lt;b&gt;Main&lt;br/&gt;&lt;/b&gt;&lt;/font&gt;&lt;/p&gt;" parent="28" vertex="1" style="text;vsdxID=58;fillColor=none;gradientColor=none;strokeColor=none;spacingTop=3;spacingBottom=3;labelBackgroundColor=none;rounded=0;html=1;whiteSpace=wrap;verticalAlign=middle;align=center;;html=1;">
          <mxGeometry as="geometry" height="44.31" width="260" y="-0.12"/>
        </mxCell>
        <mxCell id="32" value="&lt;font style=&quot;font-size:14px;font-family:Calibri;color:#000000;direction:ltr;letter-spacing:0px;line-height:120%;opacity:1&quot;&gt;feed:Dictionary&lt;br/&gt;&lt;/font&gt;" parent="1" vertex="1" style="verticalAlign=middle;align=left;vsdxID=63;fillColor=#5b9bd5;gradientColor=none;fillOpacity=0;shape=stencil(nZBLDoAgDERP0z3SIyjew0SURgSD+Lu9kMZoXLhwN9N5bdMClrNpJg1SzDH4QW/URgNYgZTkjA4UkwJUgGXng+6DX1zLfmoymdXo1zxh5z6RO6Q42BWCfc2oJfdAr/AX/IH+BF/rk7hv7MjaZ/L+RirxJ1Gd);strokeColor=#5b9bd5;spacingTop=-3;spacingBottom=-3;spacingLeft=3;spacingRight=-3;labelBackgroundColor=none;rounded=0;html=1;whiteSpace=wrap;">
          <mxGeometry as="geometry" height="16" width="252" y="596" x="348"/>
        </mxCell>
        <mxCell id="33" parent="1" vertex="1" style="vsdxID=64;fillColor=#ffffff;gradientColor=none;shape=stencil(fY9LDoAgDERP0z3SeALUe5gI0ohgEH+3F9KFxoW7mfa1nQKq1faLBinWFMOkDxqSBWxASvJWR0pZAbaAyoSoxxg2P7Bf+kIWNYe9bDh5TpQJKS52NduOSUf+RVbij83iOWHIOU747n8j5RK/g+0N);dashed=1;dashPattern=2.00 2.00;strokeColor=#5b9bd5;labelBackgroundColor=none;rounded=0;html=1;whiteSpace=wrap;">
          <mxGeometry as="geometry" height="4" width="252" y="613" x="348"/>
        </mxCell>
        <mxCell id="34" value="&lt;font style=&quot;font-size:14px;font-family:Calibri;color:#000000;direction:ltr;letter-spacing:0px;line-height:120%;opacity:1&quot;&gt;post(user,product,tweet)&lt;br/&gt;get_latest_tweets(product,n)&lt;br/&gt;&lt;/font&gt;" parent="1" vertex="1" style="verticalAlign=middle;align=left;vsdxID=65;fillColor=#5b9bd5;gradientColor=none;fillOpacity=0;shape=stencil(nZBLDoAgDERP0z3SIyjew0SURgSD+Lu9kMZoXLhwN9N5bdMClrNpJg1SzDH4QW/URgNYgZTkjA4UkwJUgGXng+6DX1zLfmoymdXo1zxh5z6RO6Q42BWCfc2oJfdAr/AX/IH+BF/rk7hv7MjaZ/L+RirxJ1Gd);strokeColor=#5b9bd5;spacingTop=-3;spacingBottom=-3;spacingLeft=3;spacingRight=-3;labelBackgroundColor=none;rounded=0;html=1;whiteSpace=wrap;">
          <mxGeometry as="geometry" height="33" width="252" y="617" x="348"/>
        </mxCell>
        <mxCell id="35" parent="1" vertex="1" style="vsdxID=66;fillColor=none;gradientColor=none;strokeColor=none;spacingTop=3;spacingBottom=3;labelBackgroundColor=none;rounded=0;html=1;whiteSpace=wrap;">
          <mxGeometry as="geometry" height="103" width="260" y="528" x="64"/>
        </mxCell>
        <mxCell id="36" parent="35" vertex="1" style="vsdxID=67;fillColor=#f2f2f2;gradientColor=none;shape=stencil(1ZJBDsIgEEVPwxJDwcS4rnXpHSaWtkSEZoq2vb2Q0dg20Sbu3P2Z/2Yg8JnKuwZazaToAvqL7k0ZGqYOTErjGo0mRMVUwVReedQ1+psrqW4hkUld/T1tGGhOpAkpRqoyQfWRUGvcBH2ZP8FbudnvPuMrMOA5uviET3AiHMdFY2WbGDgMpuPoAwTj3Yy2gLXm8SReWahnVtdr3U7a2b/c7dsjL74vindGKmMtRWzqLzMVW5RHVTwA);strokeColor=#a5a5a5;labelBackgroundColor=none;rounded=0;html=1;whiteSpace=wrap;">
          <mxGeometry as="geometry" height="103" width="260"/>
        </mxCell>
        <mxCell id="37" parent="35" vertex="1" style="vsdxID=68;fillColor=#ffffff;gradientColor=none;shape=stencil(1ZJNDoMgEIVPw5IE4QjWLr3DpIKSUjADrXr7QqZp1TQuuutufr6ZN5k8puo4wKiZFDFhuOrJdmlg6sSktH7QaFOOmGqYqk1A3WO4+47yEQpZolt4lA0zzYkyIcVCWSUoPxMKeMk9fKEttATjsisc7hIzh9lGjiFBssFvWAfYa551uHHQb1px0npclav/uMxZv3rvW+r7g4/hA/RHcCefg48vjHWObLXu732US+RB1TwB);strokeColor=#a5a5a5;labelBackgroundColor=none;rounded=0;html=1;whiteSpace=wrap;">
          <mxGeometry as="geometry" height="44" width="260"/>
        </mxCell>
        <mxCell id="38" value="&lt;p style=&quot;align:center;margin-left:0;margin-right:0;margin-top:0px;margin-bottom:0px;text-indent:0;valign:middle;direction:ltr;&quot;&gt;&lt;font style=&quot;font-size:16px;font-family:Calibri;color:#000000;direction:ltr;letter-spacing:0px;line-height:120%;opacity:1&quot;&gt;&lt;b&gt;Product&lt;br/&gt;&lt;/b&gt;&lt;/font&gt;&lt;/p&gt;" parent="35" vertex="1" style="text;vsdxID=66;fillColor=none;gradientColor=none;strokeColor=none;spacingTop=3;spacingBottom=3;labelBackgroundColor=none;rounded=0;html=1;whiteSpace=wrap;verticalAlign=middle;align=center;;html=1;">
          <mxGeometry as="geometry" height="44.31" width="260" y="-0.12"/>
        </mxCell>
        <mxCell id="39" value="&lt;font style=&quot;font-size: 14px ; font-family: &amp;#34;calibri&amp;#34; ; color: #000000 ; direction: ltr ; letter-spacing: 0px ; line-height: 120% ; opacity: 1&quot;&gt;__init__(self, name, price,quality)&lt;br&gt;&lt;br&gt;&lt;br&gt;&lt;/font&gt;" parent="1" vertex="1" style="verticalAlign=middle;align=left;vsdxID=73;fillColor=#5b9bd5;gradientColor=none;fillOpacity=0;shape=stencil(nZBLDoAgDERP0z3SIyjew0SURgSD+Lu9kMZoXLhwN9N5bdMClrNpJg1SzDH4QW/URgNYgZTkjA4UkwJUgGXng+6DX1zLfmoymdXo1zxh5z6RO6Q42BWCfc2oJfdAr/AX/IH+BF/rk7hv7MjaZ/L+RirxJ1Gd);strokeColor=#5b9bd5;spacingTop=-3;spacingBottom=-3;spacingLeft=3;spacingRight=-3;labelBackgroundColor=none;rounded=0;html=1;whiteSpace=wrap;">
          <mxGeometry as="geometry" height="50" width="252" y="576" x="68"/>
        </mxCell>
        <mxCell id="40" parent="1" vertex="1" style="vsdxID=74;fillColor=none;gradientColor=none;strokeColor=none;spacingTop=3;spacingBottom=3;labelBackgroundColor=none;rounded=0;html=1;whiteSpace=wrap;">
          <mxGeometry as="geometry" height="124" width="260" y="690" x="520"/>
        </mxCell>
        <mxCell id="41" parent="40" vertex="1" style="vsdxID=75;fillColor=#f2f2f2;gradientColor=none;shape=stencil(1ZJBDsIgEEVPwxJDIcYD1LrsHSaWtkSEZoq2vb2Q0dg20Sbu3P2Z/2Yg8JnK+xY6zaToA/qLHkwVWqaOTErjWo0mRMVUwVRee9QN+purqO4gkUld/T1tGGlOpAkpJqoyQfWJUGvcDH2ZP8FqvzvIz/gGDHiOLj7hEkrCcVo1NraJkcNoeo4+QDDeLWgL2GgeT+K1hWZh9YPW3ayd/cvdvj3y6vuieGekNtZSxOb+OlOxRXlUxQM=);strokeColor=#a5a5a5;labelBackgroundColor=none;rounded=0;html=1;whiteSpace=wrap;">
          <mxGeometry as="geometry" height="124" width="260"/>
        </mxCell>
        <mxCell id="42" parent="40" vertex="1" style="vsdxID=76;fillColor=#ffffff;gradientColor=none;shape=stencil(1ZJNDoMgEIVPw5IE4QjWLr3DpIKSUjADrXr7QqZp1TQuuutufr6ZN5k8puo4wKiZFDFhuOrJdmlg6sSktH7QaFOOmGqYqk1A3WO4+47yEQpZolt4lA0zzYkyIcVCWSUoPxMKeMk9fKEttATjsisc7hIzh9lGjiFBssFvWAfYa551uHHQb1px0npclav/uMxZv3rvW+r7g4/hA/RHcCefg48vjHWObLXu732US+RB1TwB);strokeColor=#a5a5a5;labelBackgroundColor=none;rounded=0;html=1;whiteSpace=wrap;">
          <mxGeometry as="geometry" height="44" width="260"/>
        </mxCell>
        <mxCell id="43" value="&lt;p style=&quot;align:center;margin-left:0;margin-right:0;margin-top:0px;margin-bottom:0px;text-indent:0;valign:middle;direction:ltr;&quot;&gt;&lt;font style=&quot;font-size:16px;font-family:Calibri;color:#000000;direction:ltr;letter-spacing:0px;line-height:120%;opacity:1&quot;&gt;&lt;b&gt;Market&lt;br/&gt;&lt;/b&gt;&lt;/font&gt;&lt;/p&gt;" parent="40" vertex="1" style="text;vsdxID=74;fillColor=none;gradientColor=none;strokeColor=none;spacingTop=3;spacingBottom=3;labelBackgroundColor=none;rounded=0;html=1;whiteSpace=wrap;verticalAlign=middle;align=center;;html=1;">
          <mxGeometry as="geometry" height="44.31" width="260" y="-0.06"/>
        </mxCell>
        <mxCell id="44" value="&lt;font style=&quot;font-size:14px;font-family:Calibri;color:#000000;direction:ltr;letter-spacing:0px;line-height:120%;opacity:1&quot;&gt;catalogue:Dictionary&lt;br/&gt;lock:Lock()&lt;br/&gt;&lt;/font&gt;" parent="1" vertex="1" style="verticalAlign=middle;align=left;vsdxID=79;fillColor=#5b9bd5;gradientColor=none;fillOpacity=0;shape=stencil(nZBLDoAgDERP0z3SIyjew0SURgSD+Lu9kMZoXLhwN9N5bdMClrNpJg1SzDH4QW/URgNYgZTkjA4UkwJUgGXng+6DX1zLfmoymdXo1zxh5z6RO6Q42BWCfc2oJfdAr/AX/IH+BF/rk7hv7MjaZ/L+RirxJ1Gd);strokeColor=#5b9bd5;spacingTop=-3;spacingBottom=-3;spacingLeft=3;spacingRight=-3;labelBackgroundColor=none;rounded=0;html=1;whiteSpace=wrap;">
          <mxGeometry as="geometry" height="33" width="252" y="738" x="524"/>
        </mxCell>
        <mxCell id="45" parent="1" vertex="1" style="vsdxID=80;fillColor=#ffffff;gradientColor=none;shape=stencil(fY9LDoAgDERP0z3SeALUe5gI0ohgEH+3F9KFxoW7mfa1nQKq1faLBinWFMOkDxqSBWxASvJWR0pZAbaAyoSoxxg2P7Bf+kIWNYe9bDh5TpQJKS52NduOSUf+RVbij83iOWHIOU747n8j5RK/g+0N);dashed=1;dashPattern=2.00 2.00;strokeColor=#5b9bd5;labelBackgroundColor=none;rounded=0;html=1;whiteSpace=wrap;">
          <mxGeometry as="geometry" height="4" width="252" y="772" x="524"/>
        </mxCell>
        <mxCell id="46" value="&lt;font style=&quot;font-size:14px;font-family:Calibri;color:#000000;direction:ltr;letter-spacing:0px;line-height:120%;opacity:1&quot;&gt;register_seller(seller,product)&lt;br/&gt;buy(buyer,product)&lt;br/&gt;&lt;/font&gt;" parent="1" vertex="1" style="verticalAlign=middle;align=left;vsdxID=81;fillColor=#5b9bd5;gradientColor=none;fillOpacity=0;shape=stencil(nZBLDoAgDERP0z3SIyjew0SURgSD+Lu9kMZoXLhwN9N5bdMClrNpJg1SzDH4QW/URgNYgZTkjA4UkwJUgGXng+6DX1zLfmoymdXo1zxh5z6RO6Q42BWCfc2oJfdAr/AX/IH+BF/rk7hv7MjaZ/L+RirxJ1Gd);strokeColor=#5b9bd5;spacingTop=-3;spacingBottom=-3;spacingLeft=3;spacingRight=-3;labelBackgroundColor=none;rounded=0;html=1;whiteSpace=wrap;">
          <mxGeometry as="geometry" height="33" width="252" y="776" x="524"/>
        </mxCell>
        <mxCell id="54" parent="1" vertex="1" style="vsdxID=100;fillColor=none;gradientColor=none;strokeColor=none;spacingTop=3;spacingBottom=3;labelBackgroundColor=none;rounded=0;html=1;whiteSpace=wrap;">
          <mxGeometry as="geometry" height="107" width="260" y="418" x="346"/>
        </mxCell>
        <mxCell id="55" parent="54" vertex="1" style="vsdxID=101;fillColor=#f2f2f2;gradientColor=none;shape=stencil(1ZJBDsIgEEVPwxJDwcQD1LrsHSaWtkSEZoq2vb2Q0dg20Sbu3P2Z/2Yg8JnK+xY6zaToA/qLHkwVWqaOTErjWo0mRMVUwVRee9QN+purqO4gkUld/T1tGGlOpAkpJqoyQfWJUGvcDH2ZP8H7bKcOn/ENGPAcXXzCJZSE47RqbGwTI4fR9Bx9gGC8W9AWsNE8nsRrC83C6getu1k7+5e7fXvk1fdF8c5IbayliM39daZii/Koigc=);strokeColor=#a5a5a5;labelBackgroundColor=none;rounded=0;html=1;whiteSpace=wrap;">
          <mxGeometry as="geometry" height="107" width="260"/>
        </mxCell>
        <mxCell id="56" parent="54" vertex="1" style="vsdxID=102;fillColor=#ffffff;gradientColor=none;shape=stencil(1ZJNDoMgEIVPw5IE4QjWLr3DpIKSUjADrXr7QqZp1TQuuutufr6ZN5k8puo4wKiZFDFhuOrJdmlg6sSktH7QaFOOmGqYqk1A3WO4+47yEQpZolt4lA0zzYkyIcVCWSUoPxMKeMk9fKEttATjsisc7hIzh9lGjiFBssFvWAfYa551uHHQb1px0npclav/uMxZv3rvW+r7g4/hA/RHcCefg48vjHWObLXu732US+RB1TwB);strokeColor=#a5a5a5;labelBackgroundColor=none;rounded=0;html=1;whiteSpace=wrap;">
          <mxGeometry as="geometry" height="44" width="260"/>
        </mxCell>
        <mxCell id="57" value="&lt;p style=&quot;align:center;margin-left:0;margin-right:0;margin-top:0px;margin-bottom:0px;text-indent:0;valign:middle;direction:ltr;&quot;&gt;&lt;font style=&quot;font-size:16px;font-family:Calibri;color:#000000;direction:ltr;letter-spacing:0px;line-height:120%;opacity:1&quot;&gt;&lt;b&gt;Twitter&lt;br/&gt;&lt;/b&gt;&lt;/font&gt;&lt;/p&gt;" parent="54" vertex="1" style="text;vsdxID=100;fillColor=none;gradientColor=none;strokeColor=none;spacingTop=3;spacingBottom=3;labelBackgroundColor=none;rounded=0;html=1;whiteSpace=wrap;verticalAlign=middle;align=center;;html=1;">
          <mxGeometry as="geometry" height="44.31" width="260" y="-0.12"/>
        </mxCell>
        <mxCell id="58" value="&lt;font style=&quot;font-size:14px;font-family:Calibri;color:#000000;direction:ltr;letter-spacing:0px;line-height:120%;opacity:1&quot;&gt;feed:Dictionary&lt;br/&gt;&lt;/font&gt;" parent="1" vertex="1" style="verticalAlign=middle;align=left;vsdxID=105;fillColor=#5b9bd5;gradientColor=none;fillOpacity=0;shape=stencil(nZBLDoAgDERP0z3SIyjew0SURgSD+Lu9kMZoXLhwN9N5bdMClrNpJg1SzDH4QW/URgNYgZTkjA4UkwJUgGXng+6DX1zLfmoymdXo1zxh5z6RO6Q42BWCfc2oJfdAr/AX/IH+BF/rk7hv7MjaZ/L+RirxJ1Gd);strokeColor=#5b9bd5;spacingTop=-3;spacingBottom=-3;spacingLeft=3;spacingRight=-3;labelBackgroundColor=none;rounded=0;html=1;whiteSpace=wrap;">
          <mxGeometry as="geometry" height="16" width="252" y="466" x="350"/>
        </mxCell>
        <mxCell id="59" parent="1" vertex="1" style="vsdxID=106;fillColor=#ffffff;gradientColor=none;shape=stencil(fY9LDoAgDERP0z3SeALUe5gI0ohgEH+3F9KFxoW7mfa1nQKq1faLBinWFMOkDxqSBWxASvJWR0pZAbaAyoSoxxg2P7Bf+kIWNYe9bDh5TpQJKS52NduOSUf+RVbij83iOWHIOU747n8j5RK/g+0N);dashed=1;dashPattern=2.00 2.00;strokeColor=#5b9bd5;labelBackgroundColor=none;rounded=0;html=1;whiteSpace=wrap;">
          <mxGeometry as="geometry" height="4" width="252" y="483" x="350"/>
        </mxCell>
        <mxCell id="60" value="&lt;font style=&quot;font-size:14px;font-family:Calibri;color:#000000;direction:ltr;letter-spacing:0px;line-height:120%;opacity:1&quot;&gt;post(user,product,tweet)&lt;br/&gt;get_latest_tweets(product,n)&lt;br/&gt;&lt;/font&gt;" parent="1" vertex="1" style="verticalAlign=middle;align=left;vsdxID=107;fillColor=#5b9bd5;gradientColor=none;fillOpacity=0;shape=stencil(nZBLDoAgDERP0z3SIyjew0SURgSD+Lu9kMZoXLhwN9N5bdMClrNpJg1SzDH4QW/URgNYgZTkjA4UkwJUgGXng+6DX1zLfmoymdXo1zxh5z6RO6Q42BWCfc2oJfdAr/AX/IH+BF/rk7hv7MjaZ/L+RirxJ1Gd);strokeColor=#5b9bd5;spacingTop=-3;spacingBottom=-3;spacingLeft=3;spacingRight=-3;labelBackgroundColor=none;rounded=0;html=1;whiteSpace=wrap;">
          <mxGeometry as="geometry" height="33" width="252" y="487" x="350"/>
        </mxCell>
        <mxCell id="jEkc_l0pi6TqpreYEqsY-60" parent="1" vertex="1" style="vsdxID=84;fillColor=none;gradientColor=none;strokeColor=none;spacingTop=3;spacingBottom=3;labelBackgroundColor=none;rounded=0;html=1;whiteSpace=wrap;">
          <mxGeometry as="geometry" height="259" width="348" y="680.5" x="40"/>
        </mxCell>
        <mxCell id="jEkc_l0pi6TqpreYEqsY-61" parent="jEkc_l0pi6TqpreYEqsY-60" vertex="1" style="vsdxID=85;fillColor=#f2f2f2;gradientColor=none;shape=stencil(1ZJBDsIgEEVPwxJDYaH7Wpe9w8TSlojQTNG2txcyGtsm2sSduz/z3wwEPlN530KnmRR9QH/Rg6lCy9SRSWlcq9GEqJgqmMprj7pBf3MV1R0kMqmrv6cNI82JNCHFRFUmqD4Rao2boS/zN3i/E4fP+AYMeI4uPuESSsJxWjU2tomRw2h6jj5AMN4taAvYaB5P4rWFZmH1g9bdrJ39y92+PvLy+6J4Z6Q21lLE5v46U7FFeVTFAw==);strokeColor=#a5a5a5;labelBackgroundColor=none;rounded=0;html=1;whiteSpace=wrap;">
          <mxGeometry as="geometry" height="259" width="348"/>
        </mxCell>
        <mxCell id="jEkc_l0pi6TqpreYEqsY-62" parent="jEkc_l0pi6TqpreYEqsY-60" vertex="1" style="vsdxID=86;fillColor=#ffffff;gradientColor=none;shape=stencil(1ZJNDoMgEIVPw5IE4QjWLr3DpIKSUjADrXr7QqZp1TQuuutufr6ZN5k8puo4wKiZFDFhuOrJdmlg6sSktH7QaFOOmGqYqk1A3WO4+47yEQpZolt4lA0zzYkyIcVCWSUoPxMKeMk9fKEttATjsisc7hIzh9lGjiFBssFvWAfYa551uHHQb1px0npclav/uMxZv3rvW+r7g4/hA/RHcCefg48vjHWObLXu732US+RB1TwB);strokeColor=#a5a5a5;labelBackgroundColor=none;rounded=0;html=1;whiteSpace=wrap;">
          <mxGeometry as="geometry" height="44" width="348"/>
        </mxCell>
        <mxCell id="jEkc_l0pi6TqpreYEqsY-63" value="&lt;p style=&quot;align:center;margin-left:0;margin-right:0;margin-top:0px;margin-bottom:0px;text-indent:0;valign:middle;direction:ltr;&quot;&gt;&lt;font style=&quot;font-size:16px;font-family:Calibri;color:#000000;direction:ltr;letter-spacing:0px;line-height:120%;opacity:1&quot;&gt;&lt;b&gt;Google_Ads&lt;br/&gt;&lt;/b&gt;&lt;/font&gt;&lt;/p&gt;" parent="jEkc_l0pi6TqpreYEqsY-60" vertex="1" style="text;vsdxID=84;fillColor=none;gradientColor=none;strokeColor=none;spacingTop=3;spacingBottom=3;labelBackgroundColor=none;rounded=0;html=1;whiteSpace=wrap;verticalAlign=middle;align=center;;html=1;">
          <mxGeometry as="geometry" height="44.31" width="348" y="-0.52"/>
        </mxCell>
        <mxCell id="jEkc_l0pi6TqpreYEqsY-64" value="&lt;font style=&quot;font-size:14px;font-family:Calibri;color:#000000;direction:ltr;letter-spacing:0px;line-height:120%;opacity:1&quot;&gt;ADVERT_BASIC:String&lt;br/&gt;ADVERT_TARGETED:String&lt;br/&gt;advert_price:Dictionary&lt;br/&gt;users:List&lt;br/&gt;expenses:Dictionary&lt;br/&gt;purchase_history:Dictionary&lt;br/&gt;lock:Lock()&lt;br/&gt;&lt;br/&gt;&lt;/font&gt;" parent="1" vertex="1" style="verticalAlign=middle;align=left;vsdxID=89;fillColor=#5b9bd5;gradientColor=none;fillOpacity=0;shape=stencil(nZBLDoAgDERP0z3SIyjew0SURgSD+Lu9kMZoXLhwN9N5bdMClrNpJg1SzDH4QW/URgNYgZTkjA4UkwJUgGXng+6DX1zLfmoymdXo1zxh5z6RO6Q42BWCfc2oJfdAr/AX/IH+BF/rk7hv7MjaZ/L+RirxJ1Gd);strokeColor=#5b9bd5;spacingTop=-3;spacingBottom=-3;spacingLeft=3;spacingRight=-3;labelBackgroundColor=none;rounded=0;html=1;whiteSpace=wrap;">
          <mxGeometry as="geometry" height="135" width="340" y="728.5" x="44"/>
        </mxCell>
        <mxCell id="jEkc_l0pi6TqpreYEqsY-65" parent="1" vertex="1" style="vsdxID=90;fillColor=#ffffff;gradientColor=none;shape=stencil(fY9LDoAgDERP0z3SeALUe5gI0ohgEH+3F9KFxoW7mfa1nQKq1faLBinWFMOkDxqSBWxASvJWR0pZAbaAyoSoxxg2P7Bf+kIWNYe9bDh5TpQJKS52NduOSUf+RVbij83iOWHIOU747n8j5RK/g+0N);dashed=1;dashPattern=2.00 2.00;strokeColor=#5b9bd5;labelBackgroundColor=none;rounded=0;html=1;whiteSpace=wrap;">
          <mxGeometry as="geometry" height="4" width="340" y="864.5" x="44"/>
        </mxCell>
        <mxCell id="jEkc_l0pi6TqpreYEqsY-66" value="&lt;font style=&quot;font-size:14px;font-family:Calibri;color:#000000;direction:ltr;letter-spacing:0px;line-height:120%;opacity:1&quot;&gt;post_advertisement(seller, product, advert_type, scale)&lt;br/&gt;register_user(user)&lt;br/&gt;track_user_purchase(user, product)&lt;br/&gt;user_coverage(product)&lt;br/&gt;&lt;/font&gt;" parent="1" vertex="1" style="verticalAlign=middle;align=left;vsdxID=91;fillColor=#5b9bd5;gradientColor=none;fillOpacity=0;shape=stencil(nZBLDoAgDERP0z3SIyjew0SURgSD+Lu9kMZoXLhwN9N5bdMClrNpJg1SzDH4QW/URgNYgZTkjA4UkwJUgGXng+6DX1zLfmoymdXo1zxh5z6RO6Q42BWCfc2oJfdAr/AX/IH+BF/rk7hv7MjaZ/L+RirxJ1Gd);strokeColor=#5b9bd5;spacingTop=-3;spacingBottom=-3;spacingLeft=3;spacingRight=-3;labelBackgroundColor=none;rounded=0;html=1;whiteSpace=wrap;">
          <mxGeometry as="geometry" height="67" width="340" y="868.5" x="44"/>
        </mxCell>
        <mxCell id="2" value="Connector" parent="0"/>
      </root>
    </mxGraphModel>
  </diagram>
  <diagram id="09Pgn7MEpDsy_0Y10EXo" name="Page-2">
    <mxGraphModel grid="1" dx="1408" dy="757" gridSize="10" guides="1" tooltips="1" connect="1" arrows="1" fold="1" page="1" pageScale="1" pageWidth="850" pageHeight="1100" math="0" shadow="0">
      <root>
        <mxCell id="oXCGPI5JZCk7XQ9g_qX2-0"/>
        <mxCell id="oXCGPI5JZCk7XQ9g_qX2-1" parent="oXCGPI5JZCk7XQ9g_qX2-0"/>
      </root>
    </mxGraphModel>
  </diagram>
</mxfile>
